# xmcd
#
# Track frame offsets:
#	150
#	13990
#	30053
#	50704
#	73162
#	91013
#	119748
#	144717
#	170502
#	191642
#	208162
#	224321
#
# Disc length: 3355 seconds
# Revision: 0
# Processed by: cddbd v1.5.2PL0 Copyright (c) Steve Scherf et al.
# Submitted via: dBpowerAMP V12.0
#
DISCID=b60d190c
DTITLE=The Pack Reloaded - Never Too Late
DYEAR=1900
DGENRE=Blues
TTITLE0=Are You Ready
TTITLE1=Don`t Need You Anymore
TTITLE2=Visions
TTITLE3=Still On Fire
TTITLE4=Song For You
TTITLE5=Don`t Say...
TTITLE6=It`s Too Late
TTITLE7=Common Ground
TTITLE8=Don`t Talk To Aliens
TTITLE9=Visions ( Unplugged )
TTITLE10=Song For You ( Unplugged )
TTITLE11=Don`t Say ( Unplugged )
EXTD=
EXTT0=
EXTT1=
EXTT2=
EXTT3=
EXTT4=
EXTT5=
EXTT6=
EXTT7=
EXTT8=
EXTT9=
EXTT10=
EXTT11=
PLAYORDER=
